<svg width="17" height="17" viewBox="0 0 17 17" fill="none" xmlns="http://www.w3.org/2000/svg">
<path d="M9 5.86762V6.96809L9.95302 6.41786L10.453 7.28389L9.49998 7.83413L10.453 8.38437L9.95303 9.25039L9 8.70016V9.80064H8V8.70014L7.04694 9.25039L6.54694 8.38437L7.49998 7.83413L6.54694 7.28389L7.04694 6.41786L8 6.96811V5.86762H9Z" fill="white"/>
<path d="M13.75 9.83325C13.6119 9.83325 13.5 9.94518 13.5 10.0833V10.5833C13.5 10.7213 13.6119 10.8333 13.75 10.8333H14.25C14.3881 10.8333 14.5 10.7213 14.5 10.5833V10.0833C14.5 9.94518 14.3881 9.83325 14.25 9.83325H13.75Z" fill="white"/>
<path d="M13.5 12.0833C13.5 11.9452 13.6119 11.8333 13.75 11.8333H14.25C14.3881 11.8333 14.5 11.9452 14.5 12.0833V12.5833C14.5 12.7213 14.3881 12.8333 14.25 12.8333H13.75C13.6119 12.8333 13.5 12.7213 13.5 12.5833V12.0833Z" fill="white"/>
<path d="M13.75 13.8333C13.6119 13.8333 13.5 13.9452 13.5 14.0833V14.5833C13.5 14.7213 13.6119 14.8333 13.75 14.8333H14.25C14.3881 14.8333 14.5 14.7213 14.5 14.5833V14.0833C14.5 13.9452 14.3881 13.8333 14.25 13.8333H13.75Z" fill="white"/>
<path d="M2.75 9.83325C2.61193 9.83325 2.5 9.94518 2.5 10.0833V10.5833C2.5 10.7213 2.61193 10.8333 2.75 10.8333H3.25C3.38807 10.8333 3.5 10.7213 3.5 10.5833V10.0833C3.5 9.94518 3.38807 9.83325 3.25 9.83325H2.75Z" fill="white"/>
<path d="M2.75 11.8333C2.61193 11.8333 2.5 11.9452 2.5 12.0833V12.5833C2.5 12.7213 2.61193 12.8333 2.75 12.8333H3.25C3.38807 12.8333 3.5 12.7213 3.5 12.5833V12.0833C3.5 11.9452 3.38807 11.8333 3.25 11.8333H2.75Z" fill="white"/>
<path d="M2.5 14.0833C2.5 13.9452 2.61193 13.8333 2.75 13.8333H3.25C3.38807 13.8333 3.5 13.9452 3.5 14.0833V14.5833C3.5 14.7213 3.38807 14.8333 3.25 14.8333H2.75C2.61193 14.8333 2.5 14.7213 2.5 14.5833V14.0833Z" fill="white"/>
<path d="M5.5 1.83325C5.5 1.28097 5.94772 0.833252 6.5 0.833252H10.5C11.0523 0.833252 11.5 1.28097 11.5 1.83325V2.83325C12.0523 2.83325 12.5 3.28097 12.5 3.83325V7.83325H15.5C16.0523 7.83325 16.5 8.28097 16.5 8.83325V15.8333C16.5 16.3855 16.0523 16.8333 15.5 16.8333H1.5C0.947716 16.8333 0.5 16.3855 0.5 15.8333V8.83325C0.5 8.28097 0.947715 7.83325 1.5 7.83325H4.5V3.83325C4.5 3.28097 4.94771 2.83325 5.5 2.83325V1.83325ZM7.5 15.8333H9.5V12.8333H7.5V15.8333ZM10.5 15.8333H11.5V3.83325L5.5 3.83325V15.8333H6.5V12.8333C6.5 12.281 6.94772 11.8333 7.5 11.8333H9.5C10.0523 11.8333 10.5 12.281 10.5 12.8333V15.8333ZM10.5 1.83325H6.5V2.83325H10.5V1.83325ZM12.5 8.83325V15.8333H15.5V8.83325H12.5ZM4.5 15.8333V8.83325H1.5V15.8333H4.5Z" fill="white"/>
</svg>
