<svg width="17" height="17" viewBox="0 0 17 17" fill="none" xmlns="http://www.w3.org/2000/svg">
<path d="M3.5 2.6665C3.5 1.28579 4.61929 0.166504 6 0.166504C7.38071 0.166504 8.5 1.28579 8.5 2.6665C8.5 1.28579 9.61929 0.166504 11 0.166504C12.3807 0.166504 13.5 1.28579 13.5 2.6665L13.5 2.67207C13.5 2.74193 13.5001 2.94217 13.4622 3.1665H15.5C16.0523 3.1665 16.5 3.61422 16.5 4.1665V6.1665C16.5 6.71879 16.0523 7.1665 15.5 7.1665V14.6665C15.5 15.4949 14.8284 16.1665 14 16.1665H3C2.17157 16.1665 1.5 15.4949 1.5 14.6665L1.5 7.1665C0.947716 7.1665 0.5 6.71879 0.5 6.1665V4.1665C0.5 3.61422 0.947715 3.1665 1.5 3.1665H3.53783C3.49987 2.94217 3.49996 2.74193 3.5 2.67207C3.5 2.67011 3.5 2.66826 3.5 2.6665ZM4.56799 3.1665H7.5V2.6665C7.5 1.83808 6.82843 1.1665 6 1.1665C5.17157 1.1665 4.5 1.83808 4.5 2.6665C4.5 2.75125 4.50195 2.94001 4.54488 3.09745C4.55252 3.12545 4.56044 3.14837 4.56799 3.1665ZM9.5 3.1665H12.432C12.4396 3.14837 12.4475 3.12545 12.4551 3.09745C12.4981 2.94001 12.5 2.75125 12.5 2.6665C12.5 1.83808 11.8284 1.1665 11 1.1665C10.1716 1.1665 9.5 1.83808 9.5 2.6665V3.1665ZM1.5 4.1665V6.1665H7.5V4.1665H1.5ZM9.5 4.1665V6.1665H15.5V4.1665H9.5ZM14.5 7.1665H9.5V15.1665H14C14.2761 15.1665 14.5 14.9426 14.5 14.6665V7.1665ZM7.5 15.1665V7.1665H2.5V14.6665C2.5 14.9426 2.72386 15.1665 3 15.1665H7.5Z" fill="white"/>
</svg>
